<?xml version="1.0" encoding="utf-8"?>
<!-- Generator: Adobe Illustrator 16.0.0, SVG Export Plug-In . SVG Version: 6.00 Build 0)  -->
<!DOCTYPE svg PUBLIC "-//W3C//DTD SVG 1.1//EN" "http://www.w3.org/Graphics/SVG/1.1/DTD/svg11.dtd">
<svg version="1.1" id="Purchases-Nothing_Here" xmlns="http://www.w3.org/2000/svg" xmlns:xlink="http://www.w3.org/1999/xlink"
	 x="0px" y="0px" width="428px" height="391px" viewBox="0 0 428 391" enable-background="new 0 0 428 391" xml:space="preserve">
<g>
	<g id="XMLID_2_">
		<g>
			<polygon fill="#FEDD96" points="361.93,108.76 334.56,133.13 257.54,100.94 295.45,78.07 			"/>
			<polygon fill="#FEDD96" points="334.56,133.13 355.01,159.6 333.74,166.2 244.91,193.74 222.85,163.13 231.86,160.71 
				257.23,153.9 			"/>
			<polygon fill="#FFC655" points="334.56,133.13 257.23,153.9 256.99,153 256.99,101.1 257.54,100.94 			"/>
			<polygon fill="#FEDD96" points="292.99,256.75 220.99,286.32 220.99,165.38 222.85,163.13 244.91,193.74 333.74,166.2 
				333.99,167 333.99,239.92 			"/>
			<polygon fill="#FFC655" points="256.99,101.1 239.98,105.99 237.49,106.71 233.56,107.84 232.87,108.04 218.74,112.11 
				217.23,112.54 207.2,115.43 206.96,115.5 200.54,117.34 200.49,117.36 148,132.47 147.65,132.04 124.27,103.64 192.83,85.76 
				204.13,82.81 213.31,80.42 228.06,76.57 257.54,100.94 			"/>
			<polygon fill="#FFC655" points="222.85,163.13 220.99,165.38 220.99,163.51 198.9,154.16 147.96,132.58 148.04,132.52 
				148,132.47 200.49,117.36 200.54,117.34 206.96,115.5 207.2,115.43 217.23,112.54 218.74,112.11 232.87,108.04 233.56,107.84 
				237.49,106.71 239.98,105.99 256.99,101.1 256.99,153 257.23,153.9 231.86,160.71 			"/>
			<polygon fill="#FFC655" points="220.99,165.38 220.99,286.32 220.72,286.43 175.28,265.42 175.18,265.37 140.86,250.1 
				140.86,168.59 180.51,187.81 196.17,195.4 			"/>
			<polygon fill="#FEDD96" points="220.99,163.51 220.99,165.38 196.17,195.4 180.51,187.81 140.86,168.59 130.05,163.35 
				117.35,157.19 146.76,133.55 147.96,132.58 198.9,154.16 			"/>
		</g>
		<g>
			
				<polyline fill="none" stroke="#3F455D" stroke-width="2" stroke-linecap="round" stroke-linejoin="round" stroke-miterlimit="10" points="
				220.57,286.49 220.72,286.43 220.99,286.32 292.99,256.75 333.99,239.92 333.99,167 			"/>
			
				<polyline fill="none" stroke="#3F455D" stroke-width="2" stroke-linecap="round" stroke-linejoin="round" stroke-miterlimit="10" points="
				221.44,163.51 222.85,163.13 231.86,160.71 257.23,153.9 334.56,133.13 257.54,100.94 256.99,101.1 239.98,105.99 237.49,106.71 
				233.56,107.84 232.87,108.04 218.74,112.11 217.23,112.54 207.2,115.43 206.96,115.5 200.54,117.34 200.49,117.36 148,132.47 
				147.81,132.52 147.96,132.58 198.9,154.16 220.99,163.51 220.99,165.38 220.99,286.32 220.99,286.55 220.72,286.43 
				175.28,265.42 175.18,265.37 140.86,250.1 140.86,168.59 			"/>
			
				<polygon fill="none" stroke="#3F455D" stroke-width="2" stroke-linecap="round" stroke-linejoin="round" stroke-miterlimit="10" points="
				222.85,163.13 244.91,193.74 333.74,166.2 355.01,159.6 334.56,133.13 361.93,108.76 295.45,78.07 257.54,100.94 228.06,76.57 
				213.31,80.42 204.13,82.81 192.83,85.76 124.27,103.64 147.65,132.04 148,132.47 148.04,132.52 147.96,132.58 146.76,133.55 
				117.35,157.19 130.05,163.35 140.86,168.59 180.51,187.81 196.17,195.4 220.99,165.38 			"/>
			
				<polyline fill="none" stroke="#3F455D" stroke-width="2" stroke-linecap="round" stroke-linejoin="round" stroke-miterlimit="10" points="
				292.99,257 292.99,256.75 292.99,198 			"/>
			
				<polyline fill="none" stroke="#3F455D" stroke-width="2" stroke-linecap="round" stroke-linejoin="round" stroke-miterlimit="10" points="
				256.99,101 256.99,101.1 256.99,153 			"/>
		</g>
	</g>
</g>
<g id="XMLID_1_">
	<g>
		<path fill="#EB815B" d="M237.06,109.13C237.09,109.06,237.09,109.05,237.06,109.13L237.06,109.13z M237,109.32
			c0.22-0.9,0.38-1.77,0.49-2.61c2.31-16.78-15.5-21.35-25.21-23.04c-2.98-0.52-5.561-0.37-7.86,0.26
			c-5.83,1.61-9.86,6.38-13.93,11.42c-4,4.95-4.681,12.43-4.73,16.41c-0.939-0.16-1.88-0.27-2.83-0.34
			c-0.859-8.4,3.351-19.86,9.9-25.66c2.68-2.37,5.78-4.19,9.16-5.18c3.96-1.03,7.609-0.87,11.319-0.16
			c1.36,0.25,2.721,0.58,4.12,0.96c5.62,1.61,14.641,4.01,18.45,8.42c2.65,3.07,4.49,7.41,4.82,11.45
			c0.149,1.86-0.101,3.43-0.72,4.74c-0.551,1.2-1.41,2.2-2.521,3.01c-0.03,0.03-0.06,0.06-0.1,0.08
			C237.24,109.17,237.12,109.25,237,109.32z"/>
		<path fill="#E5774C" d="M237,109.32l-0.01,0.04c-0.74,0.55-2.25,1.59-3.601,1.95c0.17-1.14,0.23-2.3,0.17-3.47
			c-0.13-2.63-0.84-5.32-2.29-8.01l-0.399,0.2c-4.79,2.31-11.14,6.33-12.13,12.08c-0.141,0.76-0.181,1.54-0.11,2.36l-0.649,0.04
			c-0.101-0.32-0.351-1.07-0.75-1.97c-1.101-2.48-3.301-6.1-6.421-4.89c-2.699,1.06-3.819,4.05-3.88,6.82c0,0,0,3.11,2.74,5.46
			l-1.31,2.72c-0.46-0.52-0.94-0.98-1.431-1.39c-1.949-1.67-4.109-2.66-6.39-3.92c-0.3-0.15-0.6-0.32-0.91-0.5
			c-4.54-2.63-9.17-4.33-13.87-5.08c0.05-3.98,0.73-11.46,4.73-16.41c4.069-5.04,8.1-9.81,13.93-11.42c2.3-0.63,4.88-0.78,7.86-0.26
			c9.71,1.69,27.52,6.26,25.21,23.04C237.38,107.55,237.22,108.42,237,109.32z"/>
		<path fill="#FFE8DA" d="M237,109.32c0.12-0.07,0.24-0.15,0.36-0.24c-0.08,0.06-0.2,0.16-0.37,0.28L237,109.32z"/>
		<path fill="#FFE8DA" d="M237.06,109.13C237.09,109.05,237.09,109.06,237.06,109.13L237.06,109.13z"/>
		<path fill="#FFE8DA" d="M217.98,114.51l0.649-0.04c-0.07-0.82-0.03-1.6,0.11-2.36c0.99-5.75,7.34-9.77,12.13-12.08l0.399-0.2
			c1.45,2.69,2.16,5.38,2.29,8.01c0.061,1.17,0,2.33-0.17,3.47c-0.18,1.35-0.51,2.68-0.97,3.98l-0.01,0.03
			c-2.62,7.42-9.23,13.77-15.78,17.4l-0.45,0.29c-2.35-3.59-4.979-7.18-7.819-10.36l1.31-2.72c-2.74-2.35-2.74-5.46-2.74-5.46
			c0.061-2.77,1.181-5.76,3.88-6.82c3.12-1.21,5.32,2.41,6.421,4.89C217.63,113.44,217.88,114.19,217.98,114.51z M228.22,122.54
			c0.58-1.05,0.57-2.18-0.029-2.52c-0.61-0.33-1.57,0.25-2.16,1.31c-0.58,1.06-0.57,2.19,0.029,2.52
			C226.67,124.19,227.63,123.6,228.22,122.54z"/>
		<path fill="#FFFFFF" d="M198.9,154.16c-5.681,8.56-11.101,17.51-15.16,26.7c-1.021,2.16-2.16,4.51-3.23,6.95
			c-1.84,4.17-3.479,8.59-3.93,12.8l-0.86-0.1c-3.01,2.03-8.93,2.2-13.6,2.01c-3.61-0.15-7.13-1.52-10.62-2.45
			c-3.27-0.88-6.66-1.94-9.91-3.21c-1.71-0.66-3.39-1.38-4.99-2.16c-2.979-1.46-8.52-2.63-11.239-4.57
			c-2.051-1.46-2.83-2.84-2.94-4.42c-0.12-1.6,0.44-3.42,1.03-5.72c1.439-5.67,3.859-11.22,6.6-16.64
			c2.61-5.18,5.53-10.24,8.16-15.18s5.67-9.74,8.55-14.62c0.3-0.5,0.601-1.01,0.891-1.51c0.33-0.57,0.659-1.15,0.989-1.72
			c3.61-6.22,9.23-13.04,16.051-15.85c6.149-2.53,12.25-3.55,18.239-3.05c0.95,0.07,1.891,0.18,2.83,0.34
			c4.7,0.75,9.33,2.45,13.87,5.08c0.311,0.18,0.61,0.35,0.91,0.5c2.28,1.26,4.44,2.25,6.39,3.92c0.49,0.41,0.971,0.87,1.431,1.39
			c2.84,3.18,5.47,6.77,7.819,10.36c0.07,0.11,0.141,0.21,0.21,0.32c5.03,7.73,11.551,19.06,16.021,27.23l-11.42,2.95L198.9,154.16z
			"/>
		<path fill="#3F455D" d="M228.19,120.02c0.6,0.34,0.609,1.47,0.029,2.52c-0.59,1.06-1.55,1.65-2.16,1.31
			c-0.6-0.33-0.609-1.46-0.029-2.52C226.62,120.27,227.58,119.69,228.19,120.02z"/>
		<path fill="#6C8DEA" d="M145.47,249.09v-0.01c0,0-3.899-50.85-3.88-52.22c3.25,1.27,6.641,2.33,9.91,3.21
			c3.49,0.93,7.01,2.3,10.62,2.45c4.67,0.19,10.59,0.02,13.6-2.01l0.86,0.1c-0.03,0.17-0.05,0.33-0.061,0.5
			c0,0,5.011,59.57,2.61,62.58c-0.33,0.41-1.71,1.01-3.85,1.73c-13.61,4.58-57.931,14.31-57.931,14.31s0.801-15.64-15.04-14.84
			c0,0,0.421-0.2,1.19-0.58c0.03-0.01,0.04-0.01,0.04-0.01C108.89,261.77,130.56,251.8,145.47,249.09z"/>
		<path fill="#6C8DEA" d="M145.47,249.08v0.01c-14.91,2.71-36.58,12.68-41.93,15.21c0,0-0.01,0-0.04,0.01
			c-0.62,0.15-7.95,1.9-12.22,3.59l-0.601-1.2c1-10.63-6.02-18.25-6.02-18.25c2.81-1.21,37.76-8.03,37.76-8.03
			c-1.55-11.83,0-54.71,0-54.71c0.11,1.58,0.89,2.96,2.94,4.42c2.72,1.94,8.26,3.11,11.239,4.57c1.601,0.78,3.28,1.5,4.99,2.16
			C141.57,198.23,145.47,249.08,145.47,249.08z"/>
		<path fill="#3F455D" d="M102.31,264.89c15.841-0.8,15.04,14.84,15.04,14.84l-6.81,4.21c-3.28,16.71-12.76,26.91-17.91,29.71
			c8.26-5.06,9.351-32.83,7.07-38.73c-2.4-6.22-11.431-5.21-11.431-5.21c0.211-0.54,1.391-1.17,3.011-1.81
			c4.27-1.69,11.6-3.44,12.22-3.59C102.73,264.69,102.31,264.89,102.31,264.89z"/>
		<path fill="#90A4D1" d="M99.7,274.92c2.28,5.9,1.189,33.67-7.07,38.73c-0.439,0.24-0.84,0.42-1.21,0.55
			c-0.07,0.03-0.14,0.05-0.21,0.07c-0.27,0.09-0.51,0.14-0.729,0.16c-3.23,0.32-3.211-27.58-2.66-39.5
			c0.13-2.88,0.29-4.83,0.449-5.22C88.27,269.71,97.3,268.7,99.7,274.92z"/>
		<path fill="#FFE8DA" d="M92.63,313.65c-0.39,0.24-0.79,0.43-1.21,0.55C91.79,314.07,92.19,313.89,92.63,313.65z"/>
		<path fill="#3F455D" d="M90.68,266.7l0.601,1.2c-1.62,0.64-2.8,1.27-3.011,1.81c-0.159,0.39-0.319,2.34-0.449,5.22l-0.28-0.01
			c-2.36,10.37-11.521,18.43-16.42,21.6c0,0,13.54-45.27-4.51-43.86c1.21-1.61,18.05-4.21,18.05-4.21S91.68,256.07,90.68,266.7z"/>
		<path fill="#90A4D1" d="M66.61,252.66c18.05-1.41,4.51,43.86,4.51,43.86c-1.4,0.91-2.46,1.42-2.9,1.46
			C66.21,298.18,65.41,254.26,66.61,252.66z"/>
	</g>
	<g>
		<path fill="none" stroke="#3F455D" stroke-width="2" stroke-linecap="round" stroke-linejoin="round" stroke-miterlimit="10" d="
			M71.12,296.52c0,0,13.54-45.27-4.51-43.86"/>
		<path fill="none" stroke="#3F455D" stroke-width="2" stroke-linecap="round" stroke-linejoin="round" stroke-miterlimit="10" d="
			M218.03,114.67c0,0-0.021-0.06-0.05-0.16c-0.101-0.32-0.351-1.07-0.75-1.97c-1.101-2.48-3.301-6.1-6.421-4.89
			c-2.699,1.06-3.819,4.05-3.88,6.82c0,0,0,3.11,2.74,5.46l-1.31,2.72"/>
		<path fill="none" stroke="#3F455D" stroke-width="2" stroke-linecap="round" stroke-linejoin="round" stroke-miterlimit="10" d="
			M218.63,114.47c-0.07-0.82-0.03-1.6,0.11-2.36c0.99-5.75,7.34-9.77,12.13-12.08"/>
		<path fill="none" stroke="#3F455D" stroke-width="2" stroke-linecap="round" stroke-linejoin="round" stroke-miterlimit="10" d="
			M237.36,109.08c-0.12,0.09-0.24,0.17-0.36,0.24c-0.9,0.61-1.95,1.11-3.12,1.54"/>
		<path fill="none" stroke="#3F455D" stroke-width="2" stroke-linecap="round" stroke-linejoin="round" stroke-miterlimit="10" d="
			M182.93,111.42c-0.859-8.4,3.351-19.86,9.9-25.66c2.68-2.37,5.78-4.19,9.16-5.18c3.96-1.03,7.609-0.87,11.319-0.16
			c1.36,0.25,2.721,0.58,4.12,0.96c5.62,1.61,14.641,4.01,18.45,8.42c2.65,3.07,4.49,7.41,4.82,11.45
			c0.149,1.86-0.101,3.43-0.72,4.74c-0.551,1.2-1.41,2.2-2.521,3.01"/>
		<path fill="none" stroke="#3F455D" stroke-width="2" stroke-linecap="round" stroke-linejoin="round" stroke-miterlimit="10" d="
			M232.41,115.32c-2.62,7.42-9.23,13.77-15.78,17.4"/>
		<path fill="none" stroke="#3F455D" stroke-width="2" stroke-linecap="round" stroke-linejoin="round" stroke-miterlimit="10" d="
			M231.27,99.83c1.45,2.69,2.16,5.38,2.29,8.01c0.061,1.17,0,2.33-0.17,3.47c-0.18,1.35-0.51,2.68-0.97,3.98"/>
		<path fill="none" stroke="#3F455D" stroke-width="2" stroke-linecap="round" stroke-linejoin="round" stroke-miterlimit="10" d="
			M103.54,264.3c5.35-2.53,27.02-12.5,41.93-15.21c1.771-0.33,3.44-0.55,4.98-0.64"/>
		<path fill="none" stroke="#3F455D" stroke-width="2" stroke-linecap="round" stroke-linejoin="round" stroke-miterlimit="10" d="
			M204.6,145.76c-1.899,2.75-3.81,5.55-5.699,8.4c-5.681,8.56-11.101,17.51-15.16,26.7c-1.021,2.16-2.16,4.51-3.23,6.95
			c-1.84,4.17-3.479,8.59-3.93,12.8c-0.03,0.17-0.05,0.33-0.061,0.5c0,0,5.011,59.57,2.61,62.58c-0.33,0.41-1.71,1.01-3.85,1.73
			c-13.61,4.58-57.931,14.31-57.931,14.31s0.801-15.64-15.04-14.84c0,0,0.421-0.2,1.19-0.58"/>
		<path fill="none" stroke="#3F455D" stroke-width="2" stroke-linecap="round" stroke-linejoin="round" stroke-miterlimit="10" d="
			M122.42,185.71c0,0-1.55,42.88,0,54.71c0,0-34.95,6.82-37.76,8.03c0,0,7.02,7.62,6.02,18.25"/>
		<path fill="none" stroke="#3F455D" stroke-width="2" stroke-linecap="round" stroke-linejoin="round" stroke-miterlimit="10" d="
			M145.47,249.08c0,0-3.899-50.85-3.88-52.22"/>
		<path fill="none" stroke="#3F455D" stroke-width="2" stroke-linecap="round" stroke-linejoin="round" stroke-miterlimit="10" d="
			M91.42,314.2c0.37-0.13,0.771-0.31,1.21-0.55c5.15-2.8,14.63-13,17.91-29.71l6.81-4.21"/>
		<path fill="none" stroke="#3F455D" stroke-width="2" stroke-linecap="round" stroke-linejoin="round" stroke-miterlimit="10" d="
			M103.54,264.3c0,0-0.01,0-0.04,0.01c-0.62,0.15-7.95,1.9-12.22,3.59c-1.62,0.64-2.8,1.27-3.011,1.81
			c-0.159,0.39-0.319,2.34-0.449,5.22c-0.551,11.92-0.57,39.82,2.66,39.5c0.22-0.02,0.46-0.07,0.729-0.16"/>
		<path fill="none" stroke="#3F455D" stroke-width="2" stroke-linecap="round" stroke-linejoin="round" stroke-miterlimit="10" d="
			M88.27,269.71c0,0,9.03-1.01,11.431,5.21c2.28,5.9,1.189,33.67-7.07,38.73c-0.39,0.24-0.79,0.43-1.21,0.55
			c-0.07,0.03-0.14,0.05-0.21,0.07"/>
		<path fill="none" stroke="#3F455D" stroke-width="2" stroke-linecap="round" stroke-linejoin="round" stroke-miterlimit="10" d="
			M84.66,248.45c0,0-16.84,2.6-18.05,4.21c-1.2,1.6-0.4,45.52,1.609,45.32c0.44-0.04,1.5-0.55,2.9-1.46
			c4.899-3.17,14.06-11.23,16.42-21.6"/>
		<path fill="none" stroke="#3F455D" stroke-width="2" stroke-linecap="round" stroke-linejoin="round" stroke-miterlimit="10" d="
			M237.46,109c-0.03,0.03-0.06,0.06-0.1,0.08c-0.08,0.06-0.2,0.16-0.37,0.28c-0.74,0.55-2.25,1.59-3.601,1.95"/>
		<path fill="none" stroke="#3F455D" stroke-width="2" stroke-linecap="round" stroke-linejoin="round" stroke-miterlimit="10" d="
			M224.52,113.83c0,0,5.811-1.66,6.75,3.75"/>
		<path fill="none" stroke="#3F455D" stroke-width="2" stroke-linecap="round" stroke-linejoin="round" stroke-miterlimit="10" d="
			M211.73,113.59c0,0,1.27,1.33,1.27,2.83"/>
		<path fill="none" stroke="#3F455D" stroke-width="2" stroke-linecap="round" stroke-linejoin="round" stroke-miterlimit="10" d="
			M198.9,154.16l22.09,9.35l11.42-2.95c-4.47-8.17-10.99-19.5-16.021-27.23c-0.069-0.11-0.14-0.21-0.21-0.32
			c-2.35-3.59-4.979-7.18-7.819-10.36c-0.46-0.52-0.94-0.98-1.431-1.39c-1.949-1.67-4.109-2.66-6.39-3.92
			c-0.3-0.15-0.6-0.32-0.91-0.5c-4.54-2.63-9.17-4.33-13.87-5.08c-0.939-0.16-1.88-0.27-2.83-0.34
			c-5.989-0.5-12.09,0.52-18.239,3.05c-6.82,2.81-12.44,9.63-16.051,15.85c-0.33,0.57-0.659,1.15-0.989,1.72
			c-0.29,0.5-0.591,1.01-0.891,1.51c-2.88,4.88-5.92,9.68-8.55,14.62s-5.55,10-8.16,15.18c-2.74,5.42-5.16,10.97-6.6,16.64
			c-0.59,2.3-1.15,4.12-1.03,5.72c0.11,1.58,0.89,2.96,2.94,4.42c2.72,1.94,8.26,3.11,11.239,4.57c1.601,0.78,3.28,1.5,4.99,2.16
			c3.25,1.27,6.641,2.33,9.91,3.21c3.49,0.93,7.01,2.3,10.62,2.45c4.67,0.19,10.59,0.02,13.6-2.01"/>
	</g>
</g>
</svg>
